<?xml version="1.0" encoding="iso-8859-1"?>
<!-- Generator: Adobe Illustrator 19.0.0, SVG Export Plug-In . SVG Version: 6.00 Build 0)  -->
<svg version="1.1" id="Capa_1" xmlns="http://www.w3.org/2000/svg" xmlns:xlink="http://www.w3.org/1999/xlink" x="0px" y="0px"
	 viewBox="0 0 512 512" style="enable-background:new 0 0 512 512;" xml:space="preserve">
<g>
	<g>
		<path d="M437.02,74.98C388.667,26.629,324.38,0,256,0S123.332,26.628,74.98,74.98C26.629,123.333,0,187.619,0,256
			s26.628,132.668,74.98,181.02C123.333,485.371,187.62,512,256,512s132.668-26.628,181.02-74.98
			C485.371,388.667,512,324.381,512,256S485.372,123.332,437.02,74.98z M256,492.308C125.699,492.308,19.692,386.3,19.692,256
			S125.699,19.692,256,19.692S492.308,125.7,492.308,256S386.301,492.308,256,492.308z"/>
	</g>
</g>
<g>
	<g>
		<path d="M435.265,152.903c-0.045-0.087-0.095-0.177-0.147-0.266c-2.628-4.614-8.469-6.325-13.187-3.81
			c-4.798,2.559-6.614,8.524-4.054,13.322c0.045,0.086,0.095,0.176,0.146,0.264c1.806,3.171,5.129,4.972,8.562,4.972
			c1.564,0,3.149-0.373,4.626-1.16C436.009,163.666,437.825,157.701,435.265,152.903z"/>
	</g>
</g>
<g>
	<g>
		<path d="M413.412,121.924C374.028,75.727,316.653,49.231,256,49.231c-5.437,0-9.846,4.408-9.846,9.846
			c0,5.438,4.409,9.846,9.846,9.846c54.877,0,106.789,23.974,142.427,65.776c1.948,2.284,4.714,3.458,7.498,3.458
			c2.259,0,4.529-0.773,6.382-2.352C416.445,132.277,416.94,126.062,413.412,121.924z"/>
	</g>
</g>
<g>
</g>
<g>
</g>
<g>
</g>
<g>
</g>
<g>
</g>
<g>
</g>
<g>
</g>
<g>
</g>
<g>
</g>
<g>
</g>
<g>
</g>
<g>
</g>
<g>
</g>
<g>
</g>
<g>
</g>
</svg>
